<?xml version="1.0" encoding="UTF-8" standalone="no"?>
<!--
https://kakikata.maripo.org/
-->
<svg version="1.1" width="320" height="320" viewBox="0 0 320 320" xmlns="http://www.w3.org/2000/svg" xmlns:svg="http://www.w3.org/2000/svg" xmlns:rdf="http://www.w3.org/1999/02/22-rdf-syntax-ns#" xmlns:cc="http://creativecommons.org/ns#" xmlns:dc="http://purl.org/dc/elements/1.1/"><g id="main-lines" style="fill:none;fill-rule:evenodd;stroke:#000000;stroke-width:1px;stroke-linecap:round;stroke-linejoin:miter;stroke-opacity:1"><path d="m 130,33 c 30,17 61,45 61,45" st="true" length="76"></path><path d="m 81,131 c 58,-4 128,-27 128,-27 0,0 -36,33 -76,78 -40,45 -71,106 -71,106 0,0 76,-116 107,-102 31,14 -1,66 20,86 21,20 86,8 86,8" length="704"></path></g><g id="main-arrows" style="fill:none;fill-rule:evenodd;stroke:#000000;stroke-width:1px;stroke-linecap:round;stroke-linejoin:miter;stroke-opacity:1"><path d="m 130,33 c 8.69659,4.928069 17.47722,10.780513 25.56235,16.607279" length="30"></path><path d="m 81,131 c 11.713269,-0.80781 23.91596,-2.39054 35.93266,-4.40224" length="36"></path></g><g id="sub-arrows" style="fill:none;fill-rule:evenodd;stroke:#000000;stroke-width:1px;stroke-linecap:round;stroke-linejoin:miter;stroke-opacity:1"><path d="M 166.98498,115.94062 C 191.61069,109.71363 209,104 209,104 c 0,0 -10.93456,10.02334 -27.44696,26.55469" length="82"></path><path d="M 105.41545,217.00508 C 79.612167,253.3438 62,288 62,288 c 0,0 23.423175,-35.75116 49.56651,-65.16306" length="165"></path><path d="M 137.00559,197.77796 C 149.33528,187.74487 160.75808,182.27784 169,186 c 10.30322,4.65307 13.64718,13.50378 14.29072,23.98214" length="65"></path></g><g id="numbers" style="display:inline;font-style:normal;font-variant:normal;font-weight:normal;font-stretch:normal;font-size:20px;line-height:125%;font-family:sans-serif;letter-spacing:0px;word-spacing:0px;fill:#000000;fill-opacity:1;stroke:none;stroke-width:1px;stroke-linecap:butt;stroke-linejoin:miter;stroke-opacity:1"><text xml:space="preserve" x="104" y="32"><tspan x="104" y="32">1</tspan></text><text xml:space="preserve" x="59" y="115"><tspan x="59" y="115">2</tspan></text></g></svg>