<?xml version="1.0" encoding="UTF-8" standalone="no"?>
<!--
https://kakikata.maripo.org/
-->
<svg xmlns:dc="http://purl.org/dc/elements/1.1/" xmlns:cc="http://creativecommons.org/ns#" xmlns:rdf="http://www.w3.org/1999/02/22-rdf-syntax-ns#" xmlns:svg="http://www.w3.org/2000/svg" xmlns="http://www.w3.org/2000/svg" version="1.1" width="320" height="320" viewBox="0 0 320 320"><g id="main-lines" style="fill:none;fill-rule:evenodd;stroke:#000000;stroke-width:1px;stroke-linecap:round;stroke-linejoin:miter;stroke-opacity:1"><path d="m 131.19832,78.978689 c 24.36402,14.201032 49.54017,37.590971 49.54017,37.590971"></path><path d="m 91.403773,160.84346 c 47.103757,-3.34142 103.953117,-22.55458 103.953117,-22.55458 0,0 -29.23682,27.56671 -61.72216,65.15767 -32.48536,37.59097 -57.661498,88.54761 -57.661498,88.54761 0,0 61.722158,-96.90115 86.898308,-85.20619 25.17615,11.69497 -0.81213,55.13341 16.24268,71.84051 17.0548,16.7071 69.8435,6.68283 69.8435,6.68283"></path></g><g id="main-arrows" style="fill:none;fill-rule:evenodd;stroke:#000000;stroke-width:1px;stroke-linecap:round;stroke-linejoin:miter;stroke-opacity:1"><path d="m 131.19832,78.978689 c 7.0628,4.116686 14.19385,9.005553 20.76005,13.87297"></path><path d="m 91.403773,160.84346 c 9.512747,-0.67481 19.422957,-1.99695 29.182127,-3.67743"></path></g><g id="sub-arrows" style="fill:none;fill-rule:evenodd;stroke:#000000;stroke-width:1px;stroke-linecap:round;stroke-linejoin:miter;stroke-opacity:1"><path d="m 161.23508,148.26353 c 19.99937,-5.20174 34.12181,-9.97465 34.12181,-9.97465 0,0 -8.88033,8.37305 -22.2906,22.18258"></path><path d="m 111.23239,232.68821 c -20.955723,30.35572 -35.259158,59.30595 -35.259158,59.30595 0,0 19.022751,-29.8649 40.254638,-54.43428"></path><path d="m 136.8878,216.62674 c 10.01336,-8.38118 19.2902,-12.9481 25.98374,-9.83877 8.36759,3.88697 11.08334,11.28045 11.60598,20.03359"></path></g><g id="numbers" style="display:inline;font-style:normal;font-variant:normal;font-weight:normal;font-stretch:normal;font-size:20px;line-height:125%;font-family:sans-serif;letter-spacing:0px;word-spacing:0px;fill:#000000;fill-opacity:1;stroke:none;stroke-width:1px;stroke-linecap:butt;stroke-linejoin:miter;stroke-opacity:1"><text xml:space="preserve" x="104" y="67"><tspan x="104" y="67">1</tspan></text><text xml:space="preserve" x="62" y="154"><tspan x="62" y="154">2</tspan></text></g></svg>