<?xml version="1.0" encoding="UTF-8" standalone="no"?>
<!--
https://kakikata.maripo.org/
-->
<svg version="1.1" width="320" height="320" viewBox="0 0 320 320" xmlns="http://www.w3.org/2000/svg" xmlns:svg="http://www.w3.org/2000/svg" xmlns:rdf="http://www.w3.org/1999/02/22-rdf-syntax-ns#" xmlns:cc="http://creativecommons.org/ns#" xmlns:dc="http://purl.org/dc/elements/1.1/"><g id="main-lines" style="fill:none;fill-rule:evenodd;stroke:#000000;stroke-width:1px;stroke-linecap:round;stroke-linejoin:miter;stroke-opacity:1"><path d="M 193.87387,38.918919 C 135.49549,126.84685 84.324324,153.51351 84.324324,161.44144 c 0,7.92793 90.810816,82.16216 124.684686,126.12613" length="343"></path><path d="m 224.61082,53.839191 c 19.87173,13.247823 34.92608,33.721732 34.92608,33.721732" length="49"></path><path d="m 247.49342,34.376152 c 25.2913,20.473908 30.10869,31.91521 30.10869,31.91521" length="44"></path></g><g id="main-arrows" style="fill:none;fill-rule:evenodd;stroke:#000000;stroke-width:1px;stroke-linecap:round;stroke-linejoin:miter;stroke-opacity:1"><path d="m 193.87387,38.918919 c -8.75675,13.189175 -17.35133,24.999975 -25.63538,35.575912" length="44"></path><path d="m 224.61082,53.839191 c 7.96784,5.311893 15.16118,11.785537 20.92011,17.63529" length="27"></path><path d="m 247.49342,34.376152 c 7.80304,6.316749 13.6572,11.773695 18.02228,16.3001" length="24"></path></g><g id="sub-arrows"></g><g id="numbers" style="display:inline;font-style:normal;font-variant:normal;font-weight:normal;font-stretch:normal;font-size:20px;line-height:125%;font-family:sans-serif;letter-spacing:0px;word-spacing:0px;fill:#000000;fill-opacity:1;stroke:none;stroke-width:1px;stroke-linecap:butt;stroke-linejoin:miter;stroke-opacity:1"><text xml:space="preserve" x="170.81081" y="30.270271"><tspan x="170.81081" y="30.270271">1</tspan></text><text xml:space="preserve" x="216.78256" y="39.989193"><tspan x="216.78256" y="39.989193">2</tspan></text><text xml:space="preserve" x="254.11734" y="21.128328"><tspan x="254.11734" y="21.128328">3</tspan></text></g></svg>