<?xml version="1.0" encoding="UTF-8" standalone="no"?>
<!--
https://kakikata.maripo.org/
-->
<svg version="1.1" width="320" height="320" viewBox="0 0 320 320" xmlns="http://www.w3.org/2000/svg" xmlns:svg="http://www.w3.org/2000/svg" xmlns:rdf="http://www.w3.org/1999/02/22-rdf-syntax-ns#" xmlns:cc="http://creativecommons.org/ns#" xmlns:dc="http://purl.org/dc/elements/1.1/"><g id="main-lines" style="fill:none;fill-rule:evenodd;stroke:#000000;stroke-width:1px;stroke-linecap:round;stroke-linejoin:miter;stroke-opacity:1"><path d="M 43.963964,121.08108 C 165.04505,105.94595 276.75676,101.62162 276.75676,101.62162" length="234"></path><path d="m 190.99099,30.27027 c 0,133.33333 -4.32432,258.01802 -4.32432,258.01802 0,0 -2.06724,-2.68741 -5.06657,-6.33993 -4.92069,-5.99233 -12.35017,-14.58232 -17.27578,-18.16458" hane="true" length="291"></path><path d="M 175.85586,119.63964 C 123.30627,184.03864 90.643489,215.66125 59.703054,237.67371 47.359797,246.45528 35.290651,253.7074 22.342342,260.9009" harai="true" length="210"></path></g><g id="main-arrows" style="fill:none;fill-rule:evenodd;stroke:#000000;stroke-width:1px;stroke-linecap:round;stroke-linejoin:miter;stroke-opacity:1"><path d="m 43.963964,121.08108 c 14.830628,-1.85383 29.520692,-3.54547 43.882126,-5.08683" length="44"></path><path d="m 190.99099,30.27027 c 0,15.802785 -0.0607,31.484081 -0.16783,46.8507" length="47"></path><path d="m 175.85586,119.63964 c -14.09594,17.27444 -26.76097,32.19051 -38.34566,45.19535" length="59"></path></g><g id="sub-arrows"></g><g id="numbers" style="display:inline;font-style:normal;font-variant:normal;font-weight:normal;font-stretch:normal;font-size:20px;line-height:125%;font-family:sans-serif;letter-spacing:0px;word-spacing:0px;fill:#000000;fill-opacity:1;stroke:none;stroke-width:1px;stroke-linecap:butt;stroke-linejoin:miter;stroke-opacity:1"><text xml:space="preserve" x="25.225225" y="107.38739"><tspan x="25.225225" y="107.38739">1</tspan></text><text xml:space="preserve" x="164.32433" y="26.666664"><tspan x="164.32433" y="26.666664">2</tspan></text><text xml:space="preserve" x="126.12613" y="143.42342"><tspan x="126.12613" y="143.42342">3</tspan></text></g></svg>