<?xml version="1.0" encoding="UTF-8" standalone="no"?>
<!--
https://kakikata.maripo.org/
-->
<svg viewBox="0 0 320 320" height="320" width="320" version="1.1" xmlns="http://www.w3.org/2000/svg" xmlns:svg="http://www.w3.org/2000/svg" xmlns:rdf="http://www.w3.org/1999/02/22-rdf-syntax-ns#" xmlns:cc="http://creativecommons.org/ns#" xmlns:dc="http://purl.org/dc/elements/1.1/"><g style="fill:none;fill-rule:evenodd;stroke:#000000;stroke-width:1px;stroke-linecap:round;stroke-linejoin:miter;stroke-opacity:1" id="main-lines"><path d="M 44.075472,133.66038 C 149.73585,118.56604 284.98113,110.71698 284.98113,110.71698" length="242"></path><path d="M 88.754717,47.924528 C 98.415094,114.9434 109.88679,172.90566 114.11321,189.81132" length="144"></path><path d="m 225.43396,38.264151 c 0,89.547049 -19.4083,178.035449 -58.22491,229.045709 -8.7403,11.48594 -18.46463,21.07169 -29.17298,28.34148" harai="true" length="281"></path></g><g id="main-arrows" style="fill:none;fill-rule:evenodd;stroke:#000000;stroke-width:1px;stroke-linecap:round;stroke-linejoin:miter;stroke-opacity:1"><path d="m 44.075472,133.66038 c 13.919391,-1.98848 28.352218,-3.85123 42.921637,-5.58685" length="43"></path><path d="m 88.754717,47.924528 c 2.140971,14.852989 4.370909,29.261143 6.591228,42.876125" length="43"></path><path d="m 225.43396,38.264151 c 0,13.778176 -0.45948,27.531289 -1.37845,41.126675" length="41"></path></g><g id="sub-arrows"></g><g id="numbers" style="display:inline;font-style:normal;font-variant:normal;font-weight:normal;font-stretch:normal;font-size:20px;line-height:125%;font-family:sans-serif;letter-spacing:0px;word-spacing:0px;fill:#000000;fill-opacity:1;stroke:none;stroke-width:1px;stroke-linecap:butt;stroke-linejoin:miter;stroke-opacity:1"><text y="121.58491" x="27.773584" xml:space="preserve"><tspan y="121.58491" x="27.773584">1</tspan></text><text y="44.905659" x="65.811325" xml:space="preserve"><tspan y="44.905659" x="65.811325">2</tspan></text><text y="38.264149" x="200.67924" xml:space="preserve"><tspan y="38.264149" x="200.67924">3</tspan></text></g></svg>