<?xml version="1.0" encoding="UTF-8" standalone="no"?>
<!--
https://kakikata.maripo.org/
-->
<svg xmlns:dc="http://purl.org/dc/elements/1.1/" xmlns:cc="http://creativecommons.org/ns#" xmlns:rdf="http://www.w3.org/1999/02/22-rdf-syntax-ns#" xmlns:svg="http://www.w3.org/2000/svg" xmlns="http://www.w3.org/2000/svg" version="1.1" width="320" height="320" viewBox="0 0 320 320"><g id="main-lines" style="fill:none;fill-rule:evenodd;stroke:#000000;stroke-width:1px;stroke-linecap:round;stroke-linejoin:miter;stroke-opacity:1"><path d="M 28.474576,184.40678 C 77.288136,155.9322 112.54237,98.983051 128.81356,98.983051 c 16.27119,0 135.59322,96.271189 168.13559,123.389829" length="342"></path><path d="m 212.38938,78.584071 c 20.53097,22.654869 24.77876,37.522119 24.77876,37.522119" length="45"></path><path d="m 241.41593,58.761062 c 20.53097,22.654869 24.77876,37.522119 24.77876,37.522119" length="45"></path></g><g id="main-arrows" style="fill:none;fill-rule:evenodd;stroke:#000000;stroke-width:1px;stroke-linecap:round;stroke-linejoin:miter;stroke-opacity:1"><path d="m 28.474576,184.40678 c 15.645441,-9.12651 29.89794,-21.17819 42.578916,-33.34237" length="54"></path><path d="m 212.38938,78.584071 c 5.87876,6.48691 10.42249,12.335325 13.91373,17.379042" length="22"></path><path d="m 241.41593,58.761062 c 6.19787,6.839034 10.91184,12.968374 14.47301,18.193256" length="23"></path></g><g id="sub-arrows" style="fill:none;fill-rule:evenodd;stroke:#000000;stroke-width:1px;stroke-linecap:round;stroke-linejoin:miter;stroke-opacity:1"><path d="m 101.48211,119.85383 c 11.77664,-12.23136 20.99395,-20.870779 27.33145,-20.870779 5.21111,0 20.99219,9.874579 41.10734,24.189589" length="83"></path></g><g id="numbers" style="display:inline;font-style:normal;font-variant:normal;font-weight:normal;font-stretch:normal;font-size:20px;line-height:125%;font-family:sans-serif;letter-spacing:0px;word-spacing:0px;fill:#000000;fill-opacity:1;stroke:none;stroke-width:1px;stroke-linecap:butt;stroke-linejoin:miter;stroke-opacity:1"><text xml:space="preserve" x="16.99115" y="165.66373"><tspan x="16.99115" y="165.66373">1</tspan></text><text xml:space="preserve" x="185.48672" y="83.539825"><tspan x="185.48672" y="83.539825">2</tspan></text><text xml:space="preserve" x="215.9292" y="58.761063"><tspan x="215.9292" y="58.761063">3</tspan></text></g></svg>