<?xml version="1.0" encoding="UTF-8" standalone="no"?>
<!--
https://kakikata.maripo.org/
-->
<svg viewBox="0 0 320 320" height="320" width="320" version="1.1" xmlns="http://www.w3.org/2000/svg" xmlns:svg="http://www.w3.org/2000/svg" xmlns:rdf="http://www.w3.org/1999/02/22-rdf-syntax-ns#" xmlns:cc="http://creativecommons.org/ns#" xmlns:dc="http://purl.org/dc/elements/1.1/"><g style="fill:none;fill-rule:evenodd;stroke:#000000;stroke-width:1px;stroke-linecap:round;stroke-linejoin:miter;stroke-opacity:1" id="main-lines"><path d="M 38.745763,102.27119 C 124.16949,99.559322 254.33898,84.644068 254.33898,84.644068 c 0,0 -5.91201,108.386902 -100.89181,177.328232 -10.42895,7.56988 -21.93174,14.66419 -34.61845,21.08722" harai="true" length="467"></path><path d="m 281.06195,69.0177 a 25,25 0 0 1 -25,-25 25,25 0 0 1 25,-25 25,25 0 0 1 25,25 25,25 0 0 1 -25,25 z" length="0"></path></g><g style="fill:none;fill-rule:evenodd;stroke:#000000;stroke-width:1px;stroke-linecap:round;stroke-linejoin:miter;stroke-opacity:1" id="main-arrows"><path d="m 38.745763,102.27119 c 18.384883,-0.58365 38.842371,-1.73255 59.628757,-3.17637" length="60"></path><path d="m 281.06195,69.0177 c -13.80712,0 -25,-11.192881 -25,-25" length="39"></path></g><g id="sub-arrows" style="fill:none;fill-rule:evenodd;stroke:#000000;stroke-width:1px;stroke-linecap:round;stroke-linejoin:miter;stroke-opacity:1"><path d="m 187.78131,91.564367 c 38.55385,-3.711528 66.55767,-6.920299 66.55767,-6.920299 0,0 -1.35817,24.899772 -13.23081,58.421432" length="127"></path></g><g id="numbers" style="display:inline;font-style:normal;font-variant:normal;font-weight:normal;font-stretch:normal;font-size:20px;line-height:125%;font-family:sans-serif;letter-spacing:0px;word-spacing:0px;fill:#000000;fill-opacity:1;stroke:none;stroke-width:1px;stroke-linecap:butt;stroke-linejoin:miter;stroke-opacity:1"><text y="80.576271" x="23.830509" xml:space="preserve"><tspan y="80.576271" x="23.830509">1</tspan></text><text y="24.654867" x="239.07965" xml:space="preserve"><tspan y="24.654867" x="239.07965">2</tspan></text></g></svg>