<?xml version="1.0" encoding="UTF-8" standalone="no"?>
<!--
https://kakikata.maripo.org/
-->
<svg version="1.1" width="320" height="320" viewBox="0 0 320 320" xmlns="http://www.w3.org/2000/svg" xmlns:svg="http://www.w3.org/2000/svg" xmlns:rdf="http://www.w3.org/1999/02/22-rdf-syntax-ns#" xmlns:cc="http://creativecommons.org/ns#" xmlns:dc="http://purl.org/dc/elements/1.1/"><g id="main-lines" style="fill:none;fill-rule:evenodd;stroke:#000000;stroke-width:1px;stroke-linecap:round;stroke-linejoin:miter;stroke-opacity:1"><path d="M 56.949153,67.79661 C 89.491525,77.288136 246.77966,62.372881 246.77966,62.372881" length="190"></path><path d="m 67.79661,146.44068 c 28.474576,9.49152 155.9322,-8.1356 155.9322,-8.1356" length="157"></path><path d="m 246.77966,62.372881 c -12.0128,93.528229 -66.92207,160.992789 -105.62595,197.926659 -22.45735,21.43034 -39.45879,32.58182 -39.45879,32.58182" harai="true" length="280"></path></g><g id="main-arrows" style="fill:none;fill-rule:evenodd;stroke:#000000;stroke-width:1px;stroke-linecap:round;stroke-linejoin:miter;stroke-opacity:1"><path d="m 56.949153,67.79661 c 8.981721,2.619669 27.46613,3.380116 49.523537,3.108077" length="50"></path><path d="m 67.79661,146.44068 c 9.081563,3.02719 28.23169,3.29586 50.10415,2.25768" length="50"></path><path d="m 246.77966,62.372881 c -2.03215,15.821753 -5.29187,30.897642 -9.49304,45.206039" length="46"></path></g><g id="sub-arrows"></g><g id="numbers" style="display:inline;font-style:normal;font-variant:normal;font-weight:normal;font-stretch:normal;font-size:20px;line-height:125%;font-family:sans-serif;letter-spacing:0px;word-spacing:0px;fill:#000000;fill-opacity:1;stroke:none;stroke-width:1px;stroke-linecap:butt;stroke-linejoin:miter;stroke-opacity:1"><text xml:space="preserve" x="44.51128" y="56.541355"><tspan x="44.51128" y="56.541355">1</tspan></text><text xml:space="preserve" x="55.338348" y="135.33835"><tspan x="55.338348" y="135.33835">2</tspan></text><text xml:space="preserve" x="255.6391" y="60.150375"><tspan x="255.6391" y="60.150375">3</tspan></text></g></svg>